HIERARCHY
ROOT root
{
  OFFSET 0 98.6856 0
  CHANNELS 6 Xposition Yposition Zposition Zrotation Xrotation Yrotation
  JOINT torso_1
  {
    OFFSET 0 5.37224 -1.21793
    CHANNELS 6 Xposition Yposition Zposition Zrotation Xrotation Yrotation
    JOINT torso_2
    {
      OFFSET 0 5.94127 1.13336
      CHANNELS 6 Xposition Yposition Zposition Zrotation Xrotation Yrotation
      JOINT torso_3
      {
        OFFSET -1.08535e-17 6.33601 0.121658
        CHANNELS 6 Xposition Yposition Zposition Zrotation Xrotation Yrotation
        JOINT torso_4
        {
          OFFSET -1.16841e-17 6.88189 -0.46916
          CHANNELS 6 Xposition Yposition Zposition Zrotation Xrotation Yrotation
          JOINT torso_5
          {
            OFFSET -2.08699e-17 8.0451 -1.59297
            CHANNELS 6 Xposition Yposition Zposition Zrotation Xrotation Yrotation
            JOINT torso_6
            {
              OFFSET -2.67949e-17 10.0463 -0.967353
              CHANNELS 6 Xposition Yposition Zposition Zrotation Xrotation Yrotation
              JOINT torso_7
              {
                OFFSET -3.07187e-17 11.1612 1.66806
                CHANNELS 6 Xposition Yposition Zposition Zrotation Xrotation Yrotation
                JOINT neck_1
                {
                  OFFSET -1.36661e-17 5.06312 0.756688
                  CHANNELS 6 Xposition Yposition Zposition Zrotation Xrotation Yrotation
                  JOINT neck_2
                  {
                    OFFSET -1.91632e-17 5.09976 0.446172
                    CHANNELS 6 Xposition Yposition Zposition Zrotation Xrotation Yrotation
                    JOINT head
                    {
                      OFFSET -2.12574e-17 5.10962 0.809285
                      CHANNELS 6 Xposition Yposition Zposition Zrotation Xrotation Yrotation
                      End Site
                      {
                        OFFSET 0 0.1 0
                      }
                    }
                  }
                }
                JOINT l_shoulder
                {
                  OFFSET 1.30426 -8.04703 7.96922
                  CHANNELS 6 Xposition Yposition Zposition Zrotation Xrotation Yrotation
                  JOINT l_up_arm
                  {
                    OFFSET 13.7035 3.43734 -3.45766
                    CHANNELS 6 Xposition Yposition Zposition Zrotation Xrotation Yrotation
                    JOINT l_low_arm
                    {
                      OFFSET 30.8964 0.0632652 0.14496
                      CHANNELS 6 Xposition Yposition Zposition Zrotation Xrotation Yrotation
                      JOINT l_hand
                      {
                        OFFSET 25.6348 0.0524902 0.120274
                        CHANNELS 6 Xposition Yposition Zposition Zrotation Xrotation Yrotation
                        End Site
                        {
                          OFFSET 0.1 0 0
                        }
                      }
                    }
                  }
                }
                JOINT r_shoulder
                {
                  OFFSET -1.30426 -8.04702 7.96912
                  CHANNELS 6 Xposition Yposition Zposition Zrotation Xrotation Yrotation
                  JOINT r_up_arm
                  {
                    OFFSET -13.7035 3.43734 -3.45766
                    CHANNELS 6 Xposition Yposition Zposition Zrotation Xrotation Yrotation
                    JOINT r_low_arm
                    {
                      OFFSET -30.8964 0.0632652 0.14496
                      CHANNELS 6 Xposition Yposition Zposition Zrotation Xrotation Yrotation
                      JOINT r_hand
                      {
                        OFFSET -25.6348 0.0524901 0.120274
                        CHANNELS 6 Xposition Yposition Zposition Zrotation Xrotation Yrotation
                        End Site
                        {
                          OFFSET -0.1 0 0
                        }
                      }
                    }
                  }
                }
              }
            }
          }
        }
      }
    }
  }
  JOINT l_up_leg
  {
    OFFSET 9.77065 -4.44866 2.1502
    CHANNELS 6 Xposition Yposition Zposition Zrotation Xrotation Yrotation
    JOINT l_low_leg
    {
      OFFSET -0.901622 -41.0132 -0.693059
      CHANNELS 6 Xposition Yposition Zposition Zrotation Xrotation Yrotation
      JOINT l_foot
      {
        OFFSET -2.46068 -42.7371 -6.39839
        CHANNELS 6 Xposition Yposition Zposition Zrotation Xrotation Yrotation
        JOINT l_toes
        {
          OFFSET 0.82413 -10.4558 13.2182
          CHANNELS 6 Xposition Yposition Zposition Zrotation Xrotation Yrotation
          End Site
          {
            OFFSET 0 0 0.1
          }
        }
      }
    }
  }
  JOINT r_up_leg
  {
    OFFSET -9.77065 -4.44866 2.1502
    CHANNELS 6 Xposition Yposition Zposition Zrotation Xrotation Yrotation
    JOINT r_low_leg
    {
      OFFSET 0.901622 -41.0132 -0.693059
      CHANNELS 6 Xposition Yposition Zposition Zrotation Xrotation Yrotation
      JOINT r_foot
      {
        OFFSET 2.46068 -42.7371 -6.39839
        CHANNELS 6 Xposition Yposition Zposition Zrotation Xrotation Yrotation
        JOINT r_toes
        {
          OFFSET -0.82413 -10.4558 13.2182
          CHANNELS 6 Xposition Yposition Zposition Zrotation Xrotation Yrotation
          End Site
          {
            OFFSET 0 0 0.1
          }
        }
      }
    }
  }
}
MOTION
Frames: 6
Frame Time: 0.02
0 98.6856 0 -0 0 -0 0 5.37224 -1.21793 -0 0 -0 0 5.94127 1.13336 -0 0 -0 -1.08535e-17 6.33601 0.121658 -0 0 -0 -1.16841e-17 6.88189 -0.46916 -0 0 -0 -2.08699e-17 8.0451 -1.59297 -0 0 -0 -2.67949e-17 10.0463 -0.967353 -0 0 -0 -3.07187e-17 11.1612 1.66806 -0 0 -0 -1.36661e-17 5.06312 0.756688 -0 0 -0 -1.91632e-17 5.09976 0.446172 -0 0 -0 -2.12574e-17 5.10962 0.809285 -0 0 -0 1.30426 -8.04703 7.96922 -0 0 -0 13.7035 3.43734 -3.45766 -0 0 -0 30.8964 0.0632652 0.14496 -0 0 -0 25.6348 0.0524902 0.120274 -0 0 -0 -1.30426 -8.04702 7.96912 -0 0 -0 -13.7035 3.43734 -3.45766 -0 0 -0 -30.8964 0.0632652 0.14496 -0 0 -0 -25.6348 0.0524901 0.120274 -0 0 -0 9.77065 -4.44866 2.1502 -0 0 -0 -0.901622 -41.0132 -0.693059 -0 0 -0 -2.46068 -42.7371 -6.39839 -0 0 -0 0.82413 -10.4558 13.2182 -0 0 -0 -9.77065 -4.44866 2.1502 -0 0 -0 0.901622 -41.0132 -0.693059 -0 0 -0 2.46068 -42.7371 -6.39839 -0 0 -0 -0.82413 -10.4558 13.2182 -0 0 -0 
6.49748 98.3396 -89.3273 -6.63957 -0.935211 -3.17639 0 5.37224 -1.21793 0.843168 0.418905 -0.824758 0 5.94127 1.13336 0.985256 0.681181 -0.61901 -1.08535e-17 6.33601 0.121658 1.06529 1.18639 -0.547859 -1.16841e-17 6.88189 -0.46916 1.15785 1.77803 -0.494256 -2.08699e-17 8.0451 -1.59297 1.18968 2.04732 -0.760354 -2.67949e-17 10.0463 -0.967353 0.897529 2.17451 -1.11652 -3.07187e-17 11.1612 1.66806 -0.00914996 0.124246 -0.00906423 -1.36661e-17 5.06312 0.756688 2.4155 7.74178 -29.7156 -1.91632e-17 5.09976 0.446172 5.61161 -1.01549 -13.8744 -2.12574e-17 5.10962 0.809285 4.21159 2.19577 -4.82965 1.30426 -8.04703 7.96922 -6.38633 3.1114 -5.00966 13.7035 3.43734 -3.45766 -80.11 4.24702 -7.53043 30.8964 0.0632652 0.14496 1.24653 -0.0589118 -6.01828 25.6348 0.0524902 0.120274 1.90827 -7.00128 -2.89567 -1.30426 -8.04702 7.96912 2.72976 4.49259 2.47222 -13.7035 3.43734 -3.45766 79.0163 19.7753 9.13583 -30.8964 0.0632652 0.14496 -1.20095 -0.0545937 5.79695 -25.6348 0.0524901 0.120274 1.71472 -15.6407 2.38575 9.77065 -4.44866 2.1502 6.32398 0.615029 -13.3622 -0.901622 -41.0132 -0.693059 -0.244682 0.913455 -0.0139937 -2.46068 -42.7371 -6.39839 6.11965 -3.78326 14.9519 0.82413 -10.4558 13.2182 4.96962e-17 -7.95139e-16 1.2424e-17 -9.77065 -4.44866 2.1502 6.14809 -0.833243 27.4241 0.901622 -41.0132 -0.693059 0.458962 1.71387 0.0230519 2.46068 -42.7371 -6.39839 -0.246149 3.16574 -14.8278 -0.82413 -10.4558 13.2182 -1.98785e-16 -5.8393e-16 -1.27595e-14 
6.49745 98.3462 -89.3248 -6.66035 -0.864489 -3.23497 0 5.37224 -1.21793 0.849412 0.401465 -0.822991 0 5.94127 1.13336 0.989641 0.667527 -0.61577 -1.08535e-17 6.33601 0.121658 1.06848 1.17614 -0.544068 -1.16841e-17 6.88189 -0.46916 1.15954 1.77247 -0.490114 -2.08699e-17 8.0451 -1.59297 1.19064 2.04642 -0.756028 -2.67949e-17 10.0463 -0.967353 0.899317 2.17432 -1.11205 -3.07187e-17 11.1612 1.66806 -0.00907223 0.124555 -0.00905301 -1.36661e-17 5.06312 0.756688 2.41098 7.73205 -29.6892 -1.91632e-17 5.09976 0.446172 5.62297 -0.998423 -13.8612 -2.12574e-17 5.10962 0.809285 4.24015 2.23763 -4.86416 1.30426 -8.04703 7.96922 -6.41509 3.10703 -5.00037 13.7035 3.43734 -3.45766 -80.1853 4.19514 -7.54526 30.8964 0.0632652 0.14496 1.25638 -0.0599031 -6.066 25.6348 0.0524902 0.120274 1.97383 -6.85207 -2.90259 -1.30426 -8.04702 7.96912 2.72413 4.48249 2.45117 -13.7035 3.43734 -3.45766 79.0627 19.7325 9.13402 -30.8964 0.0632652 0.14496 -1.20457 -0.054943 5.81448 -25.6348 0.0524901 0.120274 1.64842 -15.3188 2.38206 9.77065 -4.44866 2.1502 6.35472 0.529884 -13.3244 -0.901622 -41.0132 -0.693059 -0.255691 0.954569 -0.0145319 -2.46068 -42.7371 -6.39839 6.13451 -3.79144 14.9519 0.82413 -10.4558 13.2182 4.47266e-16 -7.82715e-16 3.05504e-33 -9.77065 -4.44866 2.1502 6.15059 -0.797961 27.3889 0.901622 -41.0132 -0.693059 0.409569 1.52935 0.0212292 2.46068 -42.7371 -6.39839 -0.223738 3.23358 -14.8247 -0.82413 -10.4558 13.2182 -5.96354e-16 -5.59082e-16 -1.27471e-14 
6.49715 98.3515 -89.331 -6.66118 -0.759167 -3.29942 0 5.37224 -1.21793 0.852328 0.377351 -0.823822 0 5.94127 1.13336 0.992039 0.649057 -0.615659 -1.08535e-17 6.33601 0.121658 1.07091 1.16204 -0.543423 -1.16841e-17 6.88189 -0.46916 1.1618 1.76427 -0.489034 -2.08699e-17 8.0451 -1.59297 1.19283 2.044 -0.754905 -2.67949e-17 10.0463 -0.967353 0.90257 2.17245 -1.1113 -3.07187e-17 11.1612 1.66806 -0.00899653 0.124816 -0.00910336 -1.36661e-17 5.06312 0.756688 2.41274 7.72226 -29.6958 -1.91632e-17 5.09976 0.446172 5.65126 -0.993284 -13.8619 -2.12574e-17 5.10962 0.809285 4.26432 2.26463 -4.83609 1.30426 -8.04703 7.96922 -6.46052 3.10369 -4.99147 13.7035 3.43734 -3.45766 -80.2585 4.05231 -7.54864 30.8964 0.0632652 0.14496 1.26087 -0.0603576 -6.08775 25.6348 0.0524902 0.120274 2.04186 -6.64797 -2.90491 -1.30426 -8.04702 7.96912 2.72235 4.47205 2.42721 -13.7035 3.43734 -3.45766 79.1277 19.6279 9.12329 -30.8964 0.0632652 0.14496 -1.20503 -0.0549874 5.8167 -25.6348 0.0524901 0.120274 1.56812 -14.9052 2.38639 9.77065 -4.44866 2.1502 6.36658 0.408188 -13.2742 -0.901622 -41.0132 -0.693059 -0.264962 0.989195 -0.014979 -2.46068 -42.7371 -6.39839 6.1493 -3.79081 14.9515 0.82413 -10.4558 13.2182 4.96962e-17 -7.95139e-16 1.2424e-17 -9.77065 -4.44866 2.1502 6.12944 -0.764361 27.3213 0.901622 -41.0132 -0.693059 0.341515 1.27513 0.0184576 2.46068 -42.7371 -6.39839 -0.207092 3.30128 -14.8214 -0.82413 -10.4558 13.2182 -1.98785e-16 -5.8393e-16 -1.27595e-14 
6.49511 98.3519 -89.3492 -6.64487 -0.606811 -3.3893 0 5.37224 -1.21793 0.851197 0.344675 -0.824615 0 5.94127 1.13336 0.991062 0.624124 -0.616419 -1.08535e-17 6.33601 0.121658 1.07072 1.14205 -0.543923 -1.16841e-17 6.88189 -0.46916 1.16228 1.75015 -0.489406 -2.08699e-17 8.0451 -1.59297 1.19368 2.0364 -0.754878 -2.67949e-17 10.0463 -0.967353 0.904918 2.1656 -1.11099 -3.07187e-17 11.1612 1.66806 -0.00896069 0.125161 -0.00920849 -1.36661e-17 5.06312 0.756688 2.40094 7.68666 -29.71 -1.91632e-17 5.09976 0.446172 5.68273 -0.993317 -13.8651 -2.12574e-17 5.10962 0.809285 4.30503 2.29404 -4.77574 1.30426 -8.04703 7.96922 -6.52694 3.11243 -4.98618 13.7035 3.43734 -3.45766 -80.3055 3.82188 -7.53212 30.8964 0.0632652 0.14496 1.26053 -0.0603232 -6.08612 25.6348 0.0524902 0.120274 2.11243 -6.40955 -2.91755 -1.30426 -8.04702 7.96912 2.73339 4.47022 2.40258 -13.7035 3.43734 -3.45766 79.1952 19.4594 9.10796 -30.8964 0.0632652 0.14496 -1.20483 -0.0549689 5.81577 -25.6348 0.0524901 0.120274 1.47458 -14.4287 2.38894 9.77065 -4.44866 2.1502 6.36957 0.231121 -13.1931 -0.901622 -41.0132 -0.693059 -0.277541 1.03618 -0.0155767 -2.46068 -42.7371 -6.39839 6.14993 -3.81 14.9529 0.82413 -10.4558 13.2182 4.96962e-17 -7.95139e-16 1.2424e-17 -9.77065 -4.44866 2.1502 6.09415 -0.770709 27.2614 0.901622 -41.0132 -0.693059 0.266784 0.996 0.0150667 2.46068 -42.7371 -6.39839 -0.19562 3.34777 -14.8194 -0.82413 -10.4558 13.2182 -9.93923e-16 -5.46658e-16 -1.27222e-14 
6.49262 98.3531 -89.3782 -6.61545 -0.451441 -3.49307 0 5.37224 -1.21793 0.84925 0.31537 -0.822532 0 5.94127 1.13336 0.988326 0.601325 -0.614207 -1.08535e-17 6.33601 0.121658 1.06838 1.12211 -0.541467 -1.16841e-17 6.88189 -0.46916 1.16019 1.73217 -0.486783 -2.08699e-17 8.0451 -1.59297 1.19217 2.02335 -0.751306 -2.67949e-17 10.0463 -0.967353 0.905928 2.15271 -1.10636 -3.07187e-17 11.1612 1.66806 -0.00893511 0.125642 -0.00927752 -1.36661e-17 5.06312 0.756688 2.37161 7.62391 -29.7215 -1.91632e-17 5.09976 0.446172 5.71431 -0.990209 -13.8662 -2.12574e-17 5.10962 0.809285 4.35408 2.3202 -4.72118 1.30426 -8.04703 7.96922 -6.61626 3.14079 -4.99945 13.7035 3.43734 -3.45766 -80.3113 3.56048 -7.52355 30.8964 0.0632652 0.14496 1.25338 -0.0595996 -6.05145 25.6348 0.0524902 0.120274 2.17108 -6.18311 -2.94795 -1.30426 -8.04702 7.96912 2.7712 4.48758 2.39108 -13.7035 3.43734 -3.45766 79.2324 19.2883 9.08584 -30.8964 0.0632652 0.14496 -1.19974 -0.0544776 5.79109 -25.6348 0.0524901 0.120274 1.41158 -14.021 2.40816 9.77065 -4.44866 2.1502 6.36071 0.0386207 -13.1122 -0.901622 -41.0132 -0.693059 -0.293147 1.09446 -0.0163039 -2.46068 -42.7371 -6.39839 6.15361 -3.81484 14.9536 0.82413 -10.4558 13.2182 4.96962e-17 -7.95139e-16 1.2424e-17 -9.77065 -4.44866 2.1502 6.04777 -0.781818 27.1886 0.901622 -41.0132 -0.693059 0.188441 0.70343 0.011122 2.46068 -42.7371 -6.39839 -0.185852 3.40007 -14.8168 -0.82413 -10.4558 13.2182 -1.39149e-15 -5.34234e-16 -1.27098e-14 
